<svg xmlns="http://www.w3.org/2000/svg" viewBox="0 0 64 64"><defs><radialGradient id="g" cx="50%" cy="45%" r="60%"><stop offset="0" stop-color="#315dff" stop-opacity="0.45"/><stop offset="0.62" stop-color="#315dff" stop-opacity="0"/></radialGradient><filter id="f" x="-30%" y="-30%" width="160%" height="160%"><feGaussianBlur stdDeviation="1.4" result="b"/><feFlood flood-color="#315dff" flood-opacity="0.8"/><feComposite in2="b" operator="in"/><feMerge><feMergeNode/><feMergeNode in="SourceGraphic"/></feMerge></filter></defs><rect width="64" height="64" rx="12.8" fill="#090b0f"/><rect width="64" height="64" rx="12.8" fill="url(#g)"/><g filter="url(#f)" transform="translate(3.84 3.84) scale(0.88)"><ellipse cx="32" cy="32" rx="27" ry="9.5" transform="rotate(-24 32 32)" stroke="#eceef2" stroke-width="2.6" fill="none"/><circle cx="55.6" cy="21.9" r="3" fill="#eceef2"/><path d="M32 7C33.4 25.2 38.8 30.6 57 32C38.8 33.4 33.4 38.8 32 57C30.6 38.8 25.2 33.4 7 32C25.2 30.6 30.6 25.2 32 7ZM32 27.6a4.4 4.4 0 1 0 0.001 0Z" fill="#eceef2" fill-rule="evenodd"/><circle cx="32" cy="32" r="1.6" fill="#eceef2"/></g></svg>